<?xml version="1.0" standalone="no"?>
<!DOCTYPE svg PUBLIC "-//W3C//DTD SVG 20010904//EN"
 "http://www.w3.org/TR/2001/REC-SVG-20010904/DTD/svg10.dtd">
<svg version="1.0" xmlns="http://www.w3.org/2000/svg"
 width="600.000000pt" height="338.000000pt" viewBox="0 0 600.000000 338.000000"
 preserveAspectRatio="xMidYMid meet">

<g transform="translate(0.000000,338.000000) scale(0.100000,-0.100000)"
fill="#000000" stroke="none">
<path d="M5439 2538 c-41 -32 -64 -132 -45 -188 8 -24 8 -24 -8 -5 -26 33 -18
1 10 -40 22 -33 24 -41 14 -61 -15 -26 -20 -103 -8 -110 13 -8 9 -24 -7 -24
-11 0 -13 -8 -8 -30 5 -26 3 -30 -16 -30 -31 0 -114 -58 -107 -75 3 -8 0 -16
-7 -19 -7 -4 -2 -4 11 -2 18 4 21 2 12 -9 -6 -7 -7 -15 -3 -18 8 -5 79 -18
118 -21 11 -1 19 -7 18 -14 -4 -16 20 -15 36 1 10 10 11 8 5 -7 -6 -16 -4 -17
17 -11 13 4 26 12 27 16 2 5 8 7 13 4 12 -8 50 13 74 40 15 18 27 22 48 18 15
-3 27 -10 27 -15 0 -5 -8 -7 -17 -4 -10 3 -25 1 -33 -4 -11 -7 -3 -10 28 -10
25 0 41 4 37 10 -3 5 7 5 25 -1 35 -13 45 -25 29 -35 -8 -4 -9 -3 -5 4 5 8 -3
12 -25 12 -28 0 -30 -2 -18 -16 12 -15 11 -16 -9 -10 -12 3 -31 9 -42 12 -34
9 -45 -7 -19 -28 l24 -18 -26 9 c-22 8 -69 8 -157 2 -7 -1 -10 -6 -6 -13 4 -6
3 -8 -3 -5 -6 4 -25 2 -43 -5 l-33 -11 24 -18 c13 -9 27 -15 31 -13 12 8 78
14 78 8 0 -3 -10 -14 -22 -25 -30 -24 -8 -25 23 -1 24 19 104 38 94 22 -3 -4
5 -6 17 -2 22 5 22 4 6 -15 -19 -21 -24 -53 -9 -53 9 0 38 33 74 84 10 14 23
26 29 26 7 0 6 -5 -2 -15 -7 -9 -10 -27 -7 -45 4 -16 2 -32 -3 -35 -6 -3 -10
1 -10 9 0 26 -7 23 -76 -42 -43 -40 -40 -57 9 -57 21 0 37 -3 37 -7 0 -17 17
-7 30 17 7 13 17 22 22 19 6 -4 5 -11 -1 -17 -19 -19 -12 -31 7 -14 10 10 24
17 30 17 7 0 23 18 37 40 32 51 38 51 12 0 -11 -23 -17 -43 -14 -46 12 -12 47
18 63 56 10 22 21 40 24 40 3 0 5 -22 4 -50 -2 -55 1 -58 27 -34 11 10 25 13
38 9 21 -6 21 -6 -1 -25 -24 -20 -22 -22 28 -24 29 -1 31 1 33 41 1 33 -3 44
-21 57 l-22 16 22 0 c22 0 22 0 22 199 0 178 -2 201 -19 222 -10 13 -21 31
-24 39 -3 10 -6 6 -7 -10 -1 -14 -2 -29 -1 -33 4 -24 -18 8 -24 33 -4 17 -10
28 -15 25 -4 -3 -11 6 -14 20 -9 35 -46 35 -46 0 0 -31 0 -29 -10 -64 -6 -22
-3 -37 10 -59 12 -20 15 -33 8 -40 -7 -7 -4 -19 8 -38 l18 -29 -21 18 c-21 18
-43 16 -43 -3 0 -5 14 -25 30 -43 31 -36 43 -72 14 -43 -8 9 -19 16 -23 16
-14 0 1 -54 18 -67 9 -6 13 -15 9 -19 -8 -7 -68 16 -127 50 -31 18 -32 20 -13
27 11 4 23 13 28 20 5 9 -2 11 -29 6 -21 -3 -37 -4 -37 -1 0 2 21 24 48 49 27
26 41 45 32 45 -22 0 -61 -30 -55 -41 4 -5 -1 -9 -9 -9 -22 0 -11 73 18 120
23 37 24 40 12 83 -11 36 -20 34 -40 -8 -9 -19 -22 -35 -28 -35 -5 0 -8 -7 -4
-15 3 -8 1 -15 -5 -15 -5 0 -9 -6 -8 -12 1 -7 -1 -20 -5 -30 -4 -9 -1 -29 8
-47 9 -16 16 -32 16 -34 0 -8 -93 3 -129 14 -51 16 -54 19 -39 37 9 11 10 16
2 19 -18 6 6 50 36 65 47 24 80 67 80 104 0 12 -5 15 -22 9 -13 -3 -29 -7 -36
-7 -7 -1 -24 -12 -37 -24 -14 -13 -25 -18 -25 -12 0 7 -6 4 -13 -7 -15 -20
-42 -12 -33 10 3 8 0 15 -6 17 -17 6 14 49 32 45 8 -1 14 -10 12 -20 -5 -28
15 -19 37 17 38 61 28 75 -34 51 -18 -7 -17 -5 4 18 l24 27 -21 0 c-19 0 -21
4 -16 25 4 15 2 25 -5 25 -6 0 -8 7 -5 15 4 8 1 15 -6 15 -6 0 -9 3 -6 8 2 4
1 22 -2 40 -6 29 -9 31 -23 20z m19 -228 c-13 -20 -28 -27 -28 -12 0 10 22 32
32 32 5 0 3 -9 -4 -20z m42 -110 c0 -5 -4 -10 -10 -10 -5 0 -10 5 -10 10 0 6
5 10 10 10 6 0 10 -4 10 -10z m4 -45 c-9 -14 -18 -25 -20 -25 -7 0 10 35 20
42 17 12 17 9 0 -17z m436 -9 c0 -3 -4 -8 -10 -11 -5 -3 -10 -1 -10 4 0 6 5
11 10 11 6 0 10 -2 10 -4z m-314 -147 c21 -17 10 -23 -15 -7 -18 11 -23 10
-36 -7 -12 -14 -18 -16 -21 -7 -3 6 -12 12 -20 12 -17 0 -18 16 -1 24 18 8 77
-1 93 -15z m296 -11 c-7 -7 -12 -8 -12 -2 0 14 12 26 19 19 2 -3 -1 -11 -7
-17z m25 -73 c44 -19 41 -23 -14 -17 -30 3 -40 8 -36 18 6 17 6 17 50 -1z
m-127 -54 c-28 -16 -60 -22 -60 -12 0 10 22 18 55 20 16 0 17 -1 5 -8z m145
-1 c-3 -5 -18 -10 -33 -10 -21 0 -24 2 -12 10 20 13 53 13 45 0z m-181 -39 c3
-5 -3 -11 -14 -14 -13 -3 -20 0 -20 9 0 15 26 19 34 5z m166 -21 c10 -6 11
-13 5 -19 -7 -7 -16 -7 -25 -1 -13 9 -13 10 0 10 13 0 13 1 0 10 -8 5 -10 10
-5 10 6 0 17 -5 25 -10z m-220 -20 c0 -5 -5 -10 -11 -10 -5 0 -7 5 -4 10 3 6
8 10 11 10 2 0 4 -4 4 -10z"/>
<path d="M5730 2128 c-12 -22 -12 -22 6 -6 10 10 15 20 12 24 -4 3 -12 -5 -18
-18z"/>
<path d="M5505 1759 c-9 -14 -2 -20 14 -10 8 6 9 11 3 15 -6 3 -14 1 -17 -5z"/>
<path d="M5550 1739 c0 -5 5 -7 10 -4 6 3 10 8 10 11 0 2 -4 4 -10 4 -5 0 -10
-5 -10 -11z"/>
<path d="M4902 1641 c20 -28 14 -51 -12 -44 -10 3 -21 0 -24 -6 -5 -7 7 -9 38
-6 27 2 56 -1 71 -9 l27 -14 -35 1 c-19 0 -47 -8 -63 -19 l-29 -19 38 -3 c22
-2 51 1 65 6 18 6 36 6 52 -1 23 -10 24 -11 5 -14 -12 -2 -38 -19 -60 -38 -47
-43 -27 -47 47 -10 52 26 114 30 123 7 3 -8 -2 -11 -18 -7 -16 5 -37 -4 -72
-32 -103 -78 -115 -121 -20 -73 48 24 57 25 29 2 -12 -10 -27 -28 -33 -41 -12
-21 -11 -22 18 -18 18 3 29 1 25 -4 -3 -5 7 -10 23 -10 15 -1 35 -2 43 -3 8
-1 23 2 34 7 13 6 16 6 12 -2 -4 -6 -2 -11 4 -11 6 0 16 11 22 25 14 31 32 33
22 3 -6 -20 -5 -21 9 -10 9 8 19 22 22 33 4 10 11 19 16 19 13 0 -17 -56 -39
-72 -24 -17 -55 -64 -50 -77 1 -5 24 1 51 14 26 13 47 18 47 13 0 -6 9 -3 20
7 15 14 20 15 20 4 0 -35 -32 -111 -56 -136 l-27 -28 16 27 c23 37 21 55 -5
69 -19 10 -25 8 -47 -20 -31 -37 -37 -38 -61 -9 -17 21 -18 21 -44 5 -14 -10
-26 -22 -26 -27 0 -6 -6 -10 -14 -10 -13 0 -51 -29 -100 -76 -12 -11 -26 -19
-32 -17 -14 5 77 100 101 106 11 2 9 3 -5 1 -59 -7 -85 -19 -126 -60 -54 -54
-102 -60 -141 -18 -13 14 -29 24 -35 22 -24 -8 -17 -24 18 -43 l36 -19 -25 -9
c-21 -7 -77 -74 -77 -92 0 -9 52 21 93 53 24 19 44 28 57 25 11 -3 20 0 20 6
0 6 11 11 25 11 39 0 29 -17 -13 -24 -41 -6 -66 -27 -75 -63 -7 -31 3 -29 50
12 27 23 51 35 70 35 27 -1 27 -1 7 -13 -25 -14 -104 -104 -104 -118 0 -5 -4
-9 -10 -9 -5 0 -10 7 -10 15 0 20 -42 37 -53 21 -5 -7 -11 -6 -18 7 -5 9 -19
17 -30 17 -12 0 -23 10 -29 25 -6 15 -17 25 -29 25 -10 0 -26 11 -35 25 -9 14
-21 23 -26 20 -5 -3 -11 4 -15 15 -4 11 -12 20 -18 19 -16 -3 -50 12 -60 25
-6 7 -7 4 -3 -6 3 -10 -2 -24 -10 -33 -14 -13 -13 -15 8 -15 16 0 19 -3 10 -9
-19 -12 6 -21 40 -14 14 3 29 0 33 -7 4 -7 2 -10 -6 -9 -8 2 -27 0 -44 -5 -46
-12 -9 -27 40 -16 45 10 59 5 23 -9 -13 -5 -30 -16 -37 -25 -12 -14 -10 -16
17 -16 17 0 43 5 58 10 19 8 30 8 38 0 7 -7 6 -10 -3 -10 -7 0 -29 -14 -48
-30 l-34 -30 26 0 c14 0 43 10 64 22 26 15 43 19 57 13 18 -8 18 -9 -3 -12
-12 -3 -32 -16 -45 -30 -63 -69 -58 -66 -77 -49 -10 9 -23 16 -29 16 -6 0 -14
9 -17 21 -5 14 -13 19 -26 16 -12 -3 -19 0 -19 9 0 15 -38 34 -75 39 -11 2
-24 4 -30 5 -5 1 -26 2 -45 1 l-35 -2 58 -28 c34 -17 53 -31 45 -34 -7 -3 -3
-6 9 -6 16 -1 21 -6 17 -16 -5 -11 1 -15 19 -15 14 0 29 5 32 10 3 5 12 10 18
10 7 0 -1 -12 -18 -26 l-30 -25 55 5 c44 4 51 3 33 -6 -20 -10 -38 -36 -30
-44 2 -2 27 6 57 17 l53 20 -32 -37 c-18 -20 -30 -39 -27 -42 3 -3 26 9 50 26
24 18 50 32 58 32 8 0 7 -4 -5 -11 -9 -5 -24 -23 -32 -39 -21 -41 -45 -45
-102 -16 -26 14 -60 30 -75 37 -16 6 -28 15 -28 21 0 6 -6 8 -14 5 -8 -3 -17
-3 -20 1 -4 3 -14 8 -24 10 -20 4 -115 2 -120 -2 -8 -8 70 -47 84 -42 8 3 12
2 9 -4 -3 -6 -1 -10 4 -10 6 0 11 -7 11 -16 0 -12 7 -15 26 -11 18 3 22 1 15
-6 -27 -27 10 -38 52 -16 21 12 21 12 3 -15 -10 -15 -16 -29 -14 -31 2 -2 19
5 39 14 l36 18 -11 -29 c-10 -28 -14 -29 -61 -27 -27 2 -58 10 -67 18 -10 8
-18 9 -18 4 0 -6 -6 -11 -12 -10 -7 0 -24 -1 -38 -2 -24 -2 -24 -2 -6 -16 14
-11 16 -15 5 -15 -12 0 -12 -2 1 -10 8 -5 23 -7 34 -4 13 4 16 3 11 -7 -6 -9
-2 -11 13 -7 23 6 31 -9 10 -17 -7 -3 -46 -7 -85 -8 -69 -3 -103 -14 -75 -24
6 -3 12 -10 12 -16 0 -8 -4 -7 -12 1 -15 15 -48 16 -48 2 0 -5 10 -10 21 -10
18 0 19 -2 9 -15 -7 -8 -9 -15 -6 -15 4 0 2 -9 -4 -21 -7 -11 -9 -28 -5 -36 5
-14 7 -14 20 3 14 18 14 18 15 -6 1 -24 2 -24 34 14 l33 38 -5 -57 c-5 -63 6
-68 29 -13 7 18 16 35 20 38 10 7 29 82 23 91 -2 4 6 13 18 20 13 6 34 21 48
33 21 18 21 16 -3 -10 -42 -46 -59 -151 -38 -224 8 -24 8 -24 26 15 10 22 19
42 19 45 1 3 7 15 14 27 7 13 10 43 7 76 -4 44 -1 58 16 75 26 29 38 29 13 1
-14 -16 -15 -23 -7 -26 10 -3 10 -10 2 -24 -11 -22 -4 -134 12 -176 l10 -27
27 44 c17 30 27 64 30 102 3 36 9 59 18 62 11 4 13 -1 8 -21 -4 -15 -3 -24 2
-20 5 3 9 -12 7 -34 -1 -21 2 -39 7 -39 5 0 6 -7 3 -17 -4 -9 -2 -14 3 -11 5
4 10 -7 11 -23 1 -16 6 -37 11 -45 8 -14 12 -11 26 16 9 18 16 41 16 50 0 9 6
25 14 36 9 11 11 23 6 29 -6 7 -2 11 9 12 14 1 17 -3 13 -19 -4 -16 -2 -19 9
-13 12 8 12 6 0 -8 -7 -9 -9 -17 -5 -17 5 0 15 -13 22 -30 8 -16 17 -30 21
-30 13 0 34 49 34 80 0 19 3 26 8 18 4 -7 10 -10 14 -7 3 3 -4 17 -14 31 -11
13 -23 37 -27 53 -6 24 -4 27 10 22 15 -6 15 -4 0 31 -24 54 -29 82 -14 82 9
0 11 11 7 35 -5 32 -3 37 20 46 15 5 34 19 44 30 10 11 21 20 25 19 5 -1 11 7
15 17 7 17 8 17 8 -1 1 -10 -17 -36 -39 -57 -34 -34 -70 -94 -70 -120 0 -18
50 -61 65 -55 17 6 19 -3 4 -24 -8 -11 -12 -12 -16 -2 -8 20 -22 14 -16 -8 3
-11 9 -17 14 -14 5 3 9 -4 9 -16 0 -17 3 -19 19 -11 18 10 19 8 14 -29 -7 -51
13 -47 45 8 25 43 30 30 6 -16 -9 -19 -13 -41 -8 -54 l6 -21 19 24 19 24 0
-28 c0 -16 4 -26 10 -22 6 3 13 -1 16 -10 6 -13 8 -14 15 -3 7 10 9 8 9 -7 l1
-20 16 20 c14 18 15 19 9 1 -7 -20 17 -66 36 -66 7 0 8 12 3 37 -3 21 -8 45
-9 53 -1 9 -5 21 -9 27 -4 7 4 17 21 26 28 13 28 13 24 -11 -3 -17 -1 -23 7
-18 6 4 11 2 11 -4 0 -7 7 -10 15 -6 12 4 14 0 9 -21 -5 -18 -4 -24 5 -19 7 5
11 -1 11 -14 0 -12 4 -19 9 -15 5 3 12 -4 16 -15 3 -11 11 -20 16 -20 5 0 9
-7 9 -15 0 -8 5 -15 10 -15 10 0 14 30 11 88 -1 17 3 32 8 32 6 0 8 7 5 15 -4
8 -1 15 6 15 9 0 8 7 -3 24 -15 23 -15 24 5 18 17 -4 19 -2 13 18 -5 15 -4 20
4 16 17 -11 26 24 10 35 -12 8 -12 10 1 19 13 8 11 13 -12 35 -30 28 -43 32
-35 11 3 -8 0 -17 -7 -19 -16 -6 -60 30 -70 58 -7 18 -5 18 17 -3 13 -12 29
-22 36 -22 8 0 2 9 -13 21 -25 20 -37 47 -14 33 7 -4 8 -3 4 4 -4 6 -13 9 -21
6 -7 -3 -18 4 -25 16 -19 35 -6 43 25 16 17 -14 33 -26 38 -26 15 0 6 20 -15
31 -11 6 -31 22 -43 35 -12 13 -25 21 -28 17 -4 -3 -7 5 -7 19 0 38 11 41 42
11 25 -24 30 -25 55 -13 16 7 31 13 36 12 4 -1 7 2 7 8 0 5 6 7 14 4 8 -3 21
5 30 18 26 37 19 -1 -11 -62 -15 -30 -27 -69 -27 -86 0 -25 -3 -30 -18 -26
-10 2 -18 -1 -18 -7 0 -6 11 -11 23 -11 23 0 87 59 87 80 0 5 5 10 10 10 6 0
10 7 10 15 0 8 4 15 10 15 5 0 0 -18 -12 -41 -29 -56 -33 -110 -13 -153 10
-20 21 -36 25 -36 23 0 76 101 64 123 -5 9 -4 9 6 0 10 -9 10 -20 -4 -54 -16
-40 -14 -99 3 -99 5 0 16 21 26 46 19 50 29 55 17 8 -15 -52 8 -91 24 -41 7
20 8 20 16 -11 7 -28 11 -32 23 -22 10 9 15 9 15 2 0 -6 7 -9 15 -6 8 4 15 1
15 -7 0 -7 3 -9 7 -6 3 4 16 1 27 -6 12 -8 36 -19 55 -25 29 -10 32 -10 21 3
-10 12 -5 23 27 59 21 24 42 42 47 39 4 -3 3 -9 -4 -13 -9 -6 -10 -22 -5 -56
l8 -49 13 30 c7 17 13 23 14 14 0 -21 30 -48 30 -28 1 11 3 11 13 -1 7 -8 21
-17 32 -18 11 -2 37 -10 58 -17 20 -7 37 -11 37 -8 0 8 -43 67 -55 75 -5 4 -6
8 -2 8 24 0 -27 31 -69 41 -49 12 -94 48 -94 74 0 11 12 8 53 -10 56 -27 68
-21 41 19 -9 14 -12 26 -7 26 5 0 9 9 10 20 1 11 -2 20 -8 20 -5 0 -9 7 -9 15
0 9 -6 18 -14 21 -8 3 -12 13 -8 26 4 18 7 16 18 -12 11 -26 17 -30 28 -21 10
8 16 9 21 1 3 -6 11 -7 17 -4 6 4 14 0 19 -7 8 -12 11 -12 19 1 5 8 10 10 10
5 0 -10 72 -37 79 -29 2 2 -5 14 -17 27 -27 29 -28 41 -2 27 17 -9 20 -8 20
12 0 66 -118 165 -185 155 -16 -3 -39 0 -50 6 -18 9 -18 8 -7 -6 11 -13 10
-17 -5 -26 -17 -10 -17 -10 -1 -11 15 0 16 -4 7 -27 -5 -14 -7 -40 -3 -56 4
-20 3 -27 -5 -23 -6 4 -11 20 -11 35 0 15 -5 32 -12 39 -7 7 -9 12 -5 12 4 0
2 10 -5 23 -7 12 -11 25 -10 30 1 4 -2 7 -7 7 -5 0 -4 13 2 30 9 23 14 27 24
18 10 -8 17 -8 26 1 9 9 7 13 -10 17 -28 8 -63 66 -56 92 4 18 1 19 -44 11
-26 -4 -70 -19 -98 -34 -62 -33 -68 -39 -32 -30 17 5 27 3 27 -4 0 -6 -7 -11
-15 -11 -8 0 -15 -7 -15 -15 0 -21 -20 -19 -47 7 -20 18 -23 19 -23 5 0 -9 3
-17 8 -17 4 0 15 -14 25 -31 9 -17 14 -29 10 -27 -5 3 -23 10 -40 17 -18 7
-33 17 -33 22 0 4 7 6 16 2 14 -5 15 -3 5 15 -7 12 -15 22 -19 22 -18 0 -52
42 -51 63 1 20 2 19 12 -5 14 -35 25 -36 33 -3 5 19 9 23 19 15 13 -11 45 -4
45 11 0 4 -6 12 -13 16 -8 4 -16 16 -20 26 -4 9 -18 22 -32 27 -22 9 -25 15
-25 63 0 31 6 61 16 75 8 12 10 22 5 22 -6 0 -11 5 -11 10 0 6 7 10 15 10 8 0
24 9 35 20 11 11 20 16 20 10 0 -5 -11 -17 -25 -26 -19 -12 -23 -20 -15 -34 6
-12 5 -23 -5 -36 -22 -29 -18 -32 25 -24 22 4 40 5 40 2 0 -3 9 3 20 13 18 16
20 16 15 2 -12 -29 40 3 66 41 13 19 25 29 27 23 7 -22 30 -11 43 21 13 31 13
32 19 9 5 -23 6 -23 23 -7 9 10 17 31 17 47 0 25 -3 29 -19 24 -46 -14 -31 50
18 78 l32 19 -6 -29 c-4 -15 -9 -35 -12 -43 -4 -12 -6 -79 -4 -121 1 -5 5 -8
11 -4 5 3 6 13 3 23 -4 12 -3 14 5 7 6 -5 12 -32 14 -60 l3 -50 17 43 c9 23
13 40 8 37 -14 -9 -21 27 -8 43 11 13 10 14 -13 9 l-27 -7 4 54 c7 97 16 108
192 231 56 39 71 55 71 75 0 19 -2 22 -8 10 -16 -26 -285 -230 -304 -230 -6 0
0 12 14 27 18 20 20 25 7 20 -12 -4 -18 -1 -18 9 0 12 -6 15 -21 11 -17 -4
-19 -3 -10 6 13 13 15 41 2 33 -5 -3 -12 5 -15 19 -7 26 -40 50 -56 40 -6 -4
-8 -12 -4 -18 3 -7 -4 -1 -15 13 -18 21 -22 23 -31 10 -21 -30 -40 -70 -34
-70 4 0 1 -7 -6 -15 -10 -12 -10 -15 1 -15 10 -1 9 -5 -4 -14 -10 -8 -16 -20
-15 -27 2 -10 -7 -13 -32 -12 -28 2 -31 0 -15 -7 17 -8 16 -10 -10 -9 -51 2
-57 0 -51 -16 4 -11 -2 -15 -24 -15 -16 0 -32 -4 -35 -10 -3 -5 -11 -10 -16
-10 -5 0 1 15 13 33 13 17 24 34 26 36 1 3 25 5 52 6 53 1 73 11 51 24 -10 7
-8 11 9 16 18 6 20 9 9 16 -11 7 -11 9 -1 9 7 0 10 5 7 10 -4 6 -1 18 7 27 9
12 9 15 1 9 -9 -5 -13 0 -13 13 0 12 -5 21 -11 21 -21 0 -70 -42 -65 -55 3 -8
0 -16 -7 -19 -9 -3 -9 -7 1 -14 11 -7 10 -11 -4 -16 -16 -6 -16 -9 -4 -17 11
-7 5 -8 -20 -4 -27 5 -32 4 -20 -5 12 -9 7 -10 -23 -5 -28 4 -39 2 -43 -10 -7
-17 -13 -18 -33 -6 -24 15 6 41 46 41 45 0 59 33 31 73 -11 15 -26 27 -33 27
-18 0 -38 -37 -31 -56 3 -8 1 -14 -4 -14 -6 0 -10 -6 -10 -12 0 -8 -16 -14
-37 -16 -20 -1 -39 -6 -43 -11 -6 -9 -45 -31 -56 -31 -4 0 10 16 30 36 28 27
43 35 62 31 31 -6 33 24 4 53 -25 25 -39 25 -56 3 -8 -11 -13 -13 -14 -5 0 15
-32 16 -47 1 -7 -7 -14 3 -22 34 -10 42 -41 72 -49 48 -7 -21 -30 -11 -73 32
-23 23 -36 31 -27 18z m578 -276 c0 -2 -10 -10 -22 -16 -21 -11 -22 -11 -9 4
13 16 31 23 31 12z m120 -17 c0 -3 -21 -6 -46 -5 -29 0 -51 -5 -58 -14 -6 -8
-20 -16 -31 -17 -11 -2 -26 -9 -32 -14 -10 -8 -13 -6 -13 5 0 25 77 56 132 54
27 -1 48 -5 48 -9z m50 -8 c-20 -13 -33 -13 -25 0 3 6 14 10 23 10 15 0 15 -2
2 -10z m-60 -39 c0 -5 -9 -11 -19 -14 -14 -3 -18 -1 -14 9 6 15 33 19 33 5z
m-208 -23 c-7 -7 -12 -8 -12 -2 0 14 12 26 19 19 2 -3 -1 -11 -7 -17z m-12
-152 c0 -16 -26 -46 -41 -46 -17 0 -9 29 13 44 27 19 28 19 28 2z m-215 -16
c3 -5 0 -10 -8 -10 -7 0 -28 -13 -47 -30 -40 -35 -47 -33 -26 8 19 36 67 55
81 32z m65 -21 c-31 -24 -60 -41 -60 -35 0 3 5 17 12 31 8 19 19 25 42 25 l31
0 -25 -21z m137 -61 c-2 -13 -4 -5 -4 17 -1 22 1 32 4 23 2 -10 2 -28 0 -40z
m-38 -20 c-3 -27 1 -39 13 -32 6 4 8 3 5 -3 -4 -6 -25 -13 -47 -17 -22 -3 -40
-11 -40 -16 0 -6 -8 -10 -18 -10 -10 0 -36 -15 -58 -33 -21 -19 -45 -32 -51
-30 -15 5 -17 81 -3 103 14 22 22 6 11 -24 -6 -14 -9 -26 -8 -26 12 0 110 39
119 48 6 6 16 8 23 5 8 -2 21 7 30 21 19 28 27 33 24 14z m-299 -2 c0 -8 -31
-36 -41 -36 -5 0 -9 5 -9 10 0 6 7 10 15 10 8 0 15 5 15 10 0 6 5 10 10 10 6
0 10 -2 10 -4z m57 -34 c-15 -17 -15 -19 0 -35 16 -16 16 -17 0 -17 -9 0 -17
4 -17 9 0 5 -12 13 -27 18 l-27 9 39 20 c46 23 55 22 32 -4z m23 -22 c0 -5 -5
-10 -11 -10 -5 0 -7 5 -4 10 3 6 8 10 11 10 2 0 4 -4 4 -10z m-167 -51 c-66
-57 -79 -78 -36 -55 33 16 33 16 35 -46 0 -16 4 -28 9 -28 14 0 103 50 111 63
5 8 8 7 8 -5 0 -10 -5 -18 -10 -18 -6 0 -26 -15 -45 -34 -36 -36 -51 -75 -41
-102 5 -13 13 -10 51 17 42 30 59 59 34 59 -5 0 -7 5 -4 10 12 20 33 11 28
-12 -5 -23 -5 -23 10 -3 15 18 16 18 17 3 0 -11 -25 -34 -65 -59 -36 -22 -63
-45 -60 -49 3 -5 0 -10 -7 -12 -9 -3 -8 -13 4 -38 9 -18 14 -40 10 -49 -3 -9
-1 -12 4 -8 5 5 9 18 9 30 0 15 12 27 42 41 23 11 46 30 52 41 5 11 10 14 10
6 1 -7 -22 -35 -50 -61 -28 -27 -48 -53 -45 -59 4 -6 0 -11 -8 -11 -9 0 -16
-4 -16 -10 0 -5 4 -10 9 -10 16 0 43 -51 36 -68 -6 -15 -8 -15 -21 2 -20 28
-27 14 -7 -14 18 -25 25 -60 12 -60 -11 0 -59 60 -59 75 0 14 -27 107 -40 140
-5 11 -11 46 -14 78 -5 47 -3 57 9 57 19 0 19 14 1 29 -23 19 -25 67 -3 80 10
7 17 15 14 18 -3 3 -16 -2 -28 -10 -11 -9 -27 -13 -34 -11 -7 3 -38 -20 -70
-50 -35 -34 -65 -56 -78 -55 -21 0 -21 1 -3 12 11 7 38 29 61 50 23 20 48 37
55 37 7 0 10 3 7 7 -9 8 22 43 38 43 7 0 28 17 48 39 32 36 50 48 70 50 5 1
-18 -22 -50 -50z m106 38 c-2 -1 -12 -9 -22 -16 -15 -12 -17 -12 -11 3 3 9 13
16 22 16 8 0 13 -1 11 -3z m274 -74 c6 -29 4 -33 -27 -43 -37 -12 -86 -50 -86
-65 0 -6 -9 -16 -21 -23 -18 -12 -24 -11 -45 9 -25 23 -32 63 -13 74 6 4 21
-3 35 -16 24 -22 35 -14 12 9 -9 9 -9 15 0 24 7 7 12 8 12 4 0 -5 7 -3 15 4
12 10 15 10 15 0 0 -9 7 -7 20 5 11 10 20 13 20 7 0 -21 15 -13 34 19 21 35
21 35 29 -8z m349 -40 c13 -17 1 -33 -25 -33 -33 0 -67 -11 -67 -21 0 -5 10
-9 23 -10 22 0 22 0 -2 -10 -40 -16 -54 -31 -39 -40 10 -7 10 -9 -1 -9 -7 0
-24 11 -37 25 -13 14 -19 25 -14 25 6 0 9 5 8 12 -2 7 2 13 7 14 29 5 55 17
55 26 0 5 4 7 9 4 14 -9 61 34 62 57 2 19 2 19 6 -3 3 -14 9 -30 15 -37z
m-581 4 c-10 -9 -11 -8 -5 6 3 10 9 15 12 12 3 -3 0 -11 -7 -18z m256 -19 c-3
-8 -6 -5 -6 6 -1 11 2 17 5 13 3 -3 4 -12 1 -19z m-573 2 c-11 -4 -40 -30 -63
-57 -40 -47 -42 -47 -57 -28 -14 18 -13 21 2 30 9 6 33 22 53 37 20 15 47 27
61 27 23 0 24 -1 4 -9z m114 -22 c-3 -7 -13 -15 -24 -17 -16 -3 -17 -1 -5 13
16 19 34 21 29 4z m463 -37 c-7 -12 -17 -21 -23 -21 -9 0 -9 3 0 12 7 7 12 21
12 32 0 14 3 17 11 9 8 -8 8 -17 0 -32z m343 4 c-4 -8 -8 -15 -10 -15 -2 0 -4
7 -4 15 0 8 4 15 10 15 5 0 7 -7 4 -15z m-34 -50 c0 -37 19 -40 27 -4 5 28 7
30 14 14 12 -30 10 -45 -4 -45 -8 0 -24 -11 -37 -25 -13 -14 -27 -25 -32 -25
-4 0 -8 11 -8 25 0 14 4 25 9 25 5 0 11 9 14 21 4 15 2 19 -9 15 -8 -3 -14 0
-14 7 0 7 9 13 20 14 15 1 20 -4 20 -22z m-879 -19 c-14 -30 -17 -31 -26 -15
-8 14 -14 15 -29 7 -14 -8 -17 -8 -11 2 7 11 60 39 76 40 4 0 -1 -15 -10 -34z
m656 -12 c4 0 21 -6 36 -12 15 -7 39 -15 52 -18 15 -4 22 -11 18 -20 -3 -9
-10 -11 -21 -5 -10 4 -23 6 -31 3 -9 -3 -11 0 -6 8 6 10 3 12 -13 8 -16 -4
-19 -2 -15 10 4 10 2 13 -5 8 -11 -7 -52 30 -52 48 0 5 6 1 14 -10 8 -10 18
-19 23 -20z m-668 -73 c-1 -9 -6 -4 -12 10 l-10 26 -43 -49 c-24 -27 -44 -53
-44 -59 0 -22 46 -2 67 30 14 21 23 28 23 17 0 -9 -13 -30 -30 -48 -16 -17
-30 -35 -30 -40 0 -5 -4 -7 -8 -4 -5 3 -6 -8 -4 -25 2 -16 8 -32 13 -35 5 -3
9 -10 9 -17 0 -6 -7 -2 -15 9 -13 16 -16 17 -24 4 -8 -12 -10 -11 -10 5 0 11
-5 46 -12 78 -10 51 -13 56 -23 40 -6 -11 -21 -34 -33 -52 -20 -31 -22 -32
-31 -14 -9 16 -6 21 19 32 17 7 29 20 29 31 0 10 5 22 10 25 6 3 10 11 10 16
0 6 -6 7 -12 3 -10 -6 -10 -5 -1 7 8 10 23 14 40 12 18 -3 40 4 63 20 31 22
36 23 48 9 6 -9 12 -23 11 -31z m95 -25 c-30 -37 -40 -43 -52 -34 -12 10 -11
13 5 19 10 4 32 22 48 42 17 19 31 31 33 26 2 -5 -13 -29 -34 -53z m862 7
c-11 -11 -17 4 -9 23 7 18 8 18 11 1 2 -10 1 -21 -2 -24z m-596 -7 c0 -17 -11
-32 -32 -47 l-33 -22 28 27 c15 15 27 36 27 46 0 11 2 20 5 20 3 0 5 -11 5
-24z m378 -13 c22 2 44 7 51 11 6 4 11 2 11 -4 0 -6 10 -9 23 -7 12 2 16 2 9
0 -29 -10 -3 -28 43 -30 35 -2 55 3 69 15 18 16 19 16 13 -1 -4 -10 -7 -22 -7
-27 0 -5 -17 -14 -37 -20 -21 -7 -48 -19 -61 -27 -27 -17 -52 -3 -52 28 0 17
-14 25 -57 34 -36 7 -69 23 -83 41 -14 17 -14 17 12 0 19 -12 40 -16 66 -13z
m-928 -2 c-11 -21 -30 -37 -30 -25 0 8 30 44 37 44 2 0 -1 -9 -7 -19z m322
-33 c-6 -6 -7 0 -4 19 5 21 7 23 10 9 2 -10 0 -22 -6 -28z m204 -94 c-25 -31
-46 -60 -46 -66 0 -22 -25 1 -27 25 -1 20 4 28 28 36 36 12 79 54 80 78 1 17
2 17 6 1 3 -11 -14 -40 -41 -74z m-56 52 c0 -3 -4 -8 -10 -11 -5 -3 -10 -1
-10 4 0 6 5 11 10 11 6 0 10 -2 10 -4z m651 -52 c-17 -19 -31 -41 -31 -49 0
-21 -9 -19 -31 8 -25 30 -24 32 21 46 22 7 46 21 53 32 6 10 13 15 15 9 2 -6
-10 -26 -27 -46z m-791 16 c-6 -12 -14 -20 -17 -17 -2 3 1 14 8 26 17 26 24
19 9 -9z m304 -6 c3 -8 2 -12 -4 -9 -6 3 -10 10 -10 16 0 14 7 11 14 -7z
m-911 -44 c-3 -12 -8 -19 -11 -16 -5 6 5 36 12 36 2 0 2 -9 -1 -20z m-43 6 c0
-2 -8 -10 -17 -17 -16 -13 -17 -12 -4 4 13 16 21 21 21 13z"/>
<path d="M5985 1531 c-3 -5 -1 -12 5 -16 5 -3 10 1 10 9 0 18 -6 21 -15 7z"/>
<path d="M1420 1487 c36 -17 64 -37 63 -44 -2 -7 4 -10 13 -6 9 3 14 0 12 -8
-2 -8 2 -13 8 -12 6 1 28 -34 48 -77 28 -59 39 -95 42 -142 2 -42 1 -53 -4
-33 -7 26 -9 20 -14 -36 -8 -76 -31 -121 -84 -164 -20 -16 -42 -35 -49 -42 -7
-7 -15 -9 -19 -6 -3 3 -12 1 -19 -6 -8 -6 -26 -12 -40 -13 -14 -1 -23 -6 -20
-11 3 -5 -24 -7 -58 -6 -35 1 -80 -1 -99 -5 -27 -6 -32 -5 -20 4 12 9 11 10
-8 5 -14 -4 -32 0 -47 9 -14 9 -25 13 -25 9 0 -15 -82 74 -106 115 -14 24 -28
41 -31 38 -10 -10 45 -91 94 -137 39 -37 61 -49 118 -64 192 -51 367 24 440
187 39 87 40 193 2 271 -37 74 -128 162 -195 187 -76 29 -77 24 -2 -13z"/>
<path d="M4581 1321 c3 -7 18 -20 34 -29 17 -9 32 -20 35 -24 3 -4 30 -9 59
-12 65 -6 79 -17 54 -41 -17 -18 -17 -18 12 -13 18 4 50 -1 80 -13 36 -13 44
-14 30 -3 -11 8 -28 21 -38 29 -9 8 -20 15 -24 15 -4 0 -28 18 -55 41 -38 32
-48 36 -48 22 0 -15 -2 -16 -10 -3 -5 8 -14 16 -20 16 -5 1 -11 2 -12 3 -2 2
-20 4 -40 6 -20 1 -42 6 -49 10 -7 5 -10 3 -8 -4z"/>
<path d="M2043 1269 c-169 -33 -278 -162 -278 -329 1 -101 15 -144 75 -218 27
-34 47 -62 43 -62 -4 0 24 -16 63 -36 67 -34 71 -35 164 -31 110 4 148 19 229
86 65 54 107 135 116 226 18 160 -96 317 -260 360 -65 16 -88 17 -152 4z m-53
-65 c0 -8 -4 -12 -10 -9 -5 3 -10 10 -10 16 0 5 5 9 10 9 6 0 10 -7 10 -16z
m180 6 c0 -5 -2 -10 -4 -10 -3 0 -8 5 -11 10 -3 6 -1 10 4 10 6 0 11 -4 11
-10z m110 -65 c34 -18 50 -38 22 -27 -18 7 -39 21 -87 58 -19 15 -19 15 3 4
19 -9 22 -8 23 12 2 19 3 18 6 -5 3 -17 15 -32 33 -42z m-72 1 c39 -20 58 -45
73 -93 11 -37 9 -53 -11 -128 -20 -73 -21 -87 -9 -102 12 -15 12 -16 -1 -8
-13 7 -13 6 -2 -7 7 -8 9 -23 6 -33 -5 -12 -9 -13 -14 -5 -8 12 -76 17 -87 6
-4 -3 2 -15 12 -26 10 -11 16 -20 13 -20 -8 0 -49 38 -51 47 -2 10 -107 11
-107 1 0 -4 8 -12 18 -18 14 -9 13 -10 -7 -4 -19 5 -23 3 -18 -10 4 -10 1 -16
-7 -16 -8 0 -13 11 -12 27 1 14 -5 28 -13 31 -10 3 -12 0 -8 -11 3 -9 2 -19
-4 -22 -5 -4 -8 -1 -7 7 2 7 -4 12 -14 10 -20 -3 -63 17 -54 25 3 3 12 0 20
-6 9 -7 17 -8 20 -2 3 5 -7 12 -24 16 -16 4 -30 11 -30 16 0 5 11 7 25 3 19
-5 25 -2 25 10 0 9 -4 16 -10 16 -5 0 -7 6 -4 14 3 8 1 17 -4 20 -17 10 6 80
34 105 23 20 35 22 73 17 24 -3 52 -13 62 -22 17 -15 17 -13 3 41 -12 46 -13
63 -3 87 20 48 65 61 117 34z m-338 -16 c0 -5 -4 -10 -10 -10 -5 0 -10 5 -10
10 0 6 5 10 10 10 6 0 10 -4 10 -10z m477 -59 c11 -17 10 -18 -13 -7 -26 12
-32 26 -11 26 7 0 17 -8 24 -19z m-262 -301 c3 -5 1 -10 -4 -10 -6 0 -11 5
-11 10 0 6 2 10 4 10 3 0 8 -4 11 -10z m25 -30 c0 -5 -2 -10 -4 -10 -3 0 -8 5
-11 10 -3 6 -1 10 4 10 6 0 11 -4 11 -10z m-23 -16 c-3 -3 -12 -4 -19 -1 -8 3
-5 6 6 6 11 1 17 -2 13 -5z m98 -14 c3 -5 2 -10 -4 -10 -5 0 -13 5 -16 10 -3
6 -2 10 4 10 5 0 13 -4 16 -10z m-150 -10 c3 -5 2 -10 -4 -10 -5 0 -13 5 -16
10 -3 6 -2 10 4 10 5 0 13 -4 16 -10z m50 -20 c-3 -5 -14 -10 -23 -9 -14 0
-13 2 3 9 27 11 27 11 20 0z"/>
<path d="M1950 826 c0 -2 7 -7 16 -10 8 -3 12 -2 9 4 -6 10 -25 14 -25 6z"/>
<path d="M4708 1232 c-21 -4 -24 -22 -5 -22 7 0 21 6 31 13 19 14 10 17 -26 9z"/>
<path d="M2496 1211 c-4 -5 3 -7 14 -4 23 6 26 13 6 13 -8 0 -17 -4 -20 -9z"/>
<path d="M5875 1184 c-13 -10 -15 -14 -4 -14 20 0 43 16 32 23 -4 3 -17 -1
-28 -9z"/>
<path d="M4718 1183 c6 -2 18 -2 25 0 6 3 1 5 -13 5 -14 0 -19 -2 -12 -5z"/>
<path d="M5680 1175 c-8 -9 -8 -15 -2 -15 12 0 26 19 19 26 -2 2 -10 -2 -17
-11z"/>
<path d="M2420 1170 c-9 -6 -10 -10 -3 -10 6 0 15 5 18 10 8 12 4 12 -15 0z"/>
<path d="M4776 1168 c3 -5 10 -6 15 -3 13 9 11 12 -6 12 -8 0 -12 -4 -9 -9z"/>
<path d="M5796 1158 c4 -7 11 -28 15 -48 l7 -35 1 40 c1 34 3 37 12 22 6 -10
9 -34 7 -52 -3 -24 0 -31 9 -28 7 3 13 -2 13 -12 0 -9 5 -13 11 -10 6 4 17 -1
24 -11 14 -18 14 -18 15 0 0 18 1 18 13 4 6 -9 27 -19 45 -23 l32 -7 -1 44 c0
24 -3 37 -6 31 -2 -7 -9 -13 -14 -13 -6 0 -7 4 -4 10 3 5 -7 13 -22 16 -24 6
-25 8 -8 14 15 5 7 9 -27 14 -26 4 -50 11 -53 16 -3 4 4 6 14 3 11 -3 28 0 38
7 15 9 9 10 -30 7 -26 -3 -50 -1 -53 4 -3 5 -10 7 -15 4 -5 -4 -9 -1 -9 4 0 6
-5 11 -11 11 -5 0 -7 -5 -3 -12z"/>
<path d="M4838 1142 c-14 -9 -34 -29 -43 -44 l-16 -28 31 2 c20 1 29 7 26 15
-3 7 4 17 15 23 11 6 17 15 14 20 -3 4 7 13 22 18 28 10 28 10 3 10 -14 0 -37
-7 -52 -16z"/>
<path d="M5675 1129 c-11 -4 -34 -8 -52 -8 -33 -1 -58 -21 -26 -21 11 -1 4 -8
-19 -21 -38 -20 -52 -37 -22 -25 13 5 14 3 7 -6 -14 -18 -27 -78 -16 -78 5 0
16 12 25 28 13 20 18 22 18 10 0 -10 4 -18 9 -18 13 0 41 41 41 60 0 9 7 25
16 36 8 10 13 13 9 6 -9 -17 4 -92 16 -92 5 0 9 10 10 23 0 17 3 14 13 -13 12
-33 13 -34 20 -12 7 22 9 23 27 6 16 -15 19 -15 19 -2 0 19 26 31 51 23 11 -4
19 -2 19 4 0 6 -23 8 -61 6 l-62 -5 6 40 c3 22 1 43 -4 46 -5 3 -10 -3 -10
-13 -1 -11 -4 -8 -8 8 -5 21 -10 25 -26 18z"/>
<path d="M941 1115 c1 -19 18 -51 18 -35 0 8 -4 22 -9 30 -5 8 -9 11 -9 5z"/>
<path d="M1681 1080 c-54 -181 -202 -290 -392 -290 -82 0 -180 29 -240 70
l-44 31 34 -30 c44 -39 149 -93 163 -84 6 3 8 1 5 -4 -5 -7 21 -9 81 -6 90 5
237 46 297 83 33 21 75 72 75 92 0 8 7 23 15 35 9 13 11 23 5 25 -7 2 -5 17 5
42 9 21 15 48 13 60 -2 15 -7 8 -17 -24z"/>
<path d="M2518 1093 c-30 -16 -48 -33 -48 -45 0 -10 2 -18 5 -18 11 0 105 72
105 81 0 14 -11 11 -62 -18z"/>
<path d="M5520 1020 c-8 -6 -11 -10 -7 -10 5 0 1 -7 -8 -16 -8 -9 -13 -24 -10
-34 3 -10 -2 -25 -10 -34 -9 -9 -12 -16 -7 -16 14 0 27 19 46 69 18 48 18 55
-4 41z"/>
<path d="M5780 972 c0 -11 38 -32 43 -24 2 4 2 1 0 -7 -2 -7 1 -19 6 -25 4 -6
12 -28 15 -49 5 -28 11 -37 22 -33 8 3 14 2 14 -3 0 -14 57 -81 63 -74 4 3 10
-2 13 -11 5 -14 9 -15 15 -4 7 10 9 10 9 1 0 -7 5 -13 10 -13 6 0 10 18 10 40
0 30 -4 40 -16 40 -9 0 -12 -5 -8 -12 4 -7 -2 -5 -14 6 -12 10 -19 22 -17 27
3 4 -3 13 -12 19 -17 11 -17 11 0 6 33 -10 17 12 -20 28 -58 26 -65 30 -61 41
2 6 10 10 19 9 11 0 15 6 11 18 -2 10 -14 18 -26 19 -11 0 -33 2 -48 4 -16 2
-28 1 -28 -3z m168 -164 c18 -18 15 -27 -8 -25 -12 1 -20 8 -20 19 0 21 11 23
28 6z"/>
<path d="M2947 911 l-46 -58 35 -32 c20 -17 37 -31 39 -31 3 0 77 98 88 117 8
12 -40 63 -59 63 -6 0 -32 -26 -57 -59z m53 -40 c0 -6 -4 -13 -10 -16 -5 -3
-10 -1 -10 5 0 6 -4 8 -10 5 -5 -3 -10 -1 -10 4 0 6 9 11 20 11 11 0 20 -4 20
-9z"/>
<path d="M3189 933 c-13 -16 -12 -17 4 -4 16 13 21 21 13 21 -2 0 -10 -8 -17
-17z"/>
<path d="M3123 876 c-67 -76 -96 -145 -103 -250 -7 -93 -24 -140 -63 -183 -11
-13 -18 -23 -14 -23 3 0 15 10 26 21 l20 21 11 -42 c6 -24 26 -56 46 -76 37
-35 51 -43 38 -21 -5 6 16 -10 46 -36 105 -92 246 -135 357 -109 26 6 41 6 37
1 -10 -17 150 71 171 94 l20 21 -20 -16 c-11 -9 -52 -32 -90 -50 -65 -31 -77
-33 -170 -33 -87 1 -108 5 -158 28 -80 37 -170 125 -210 206 -30 62 -32 73
-32 171 0 97 2 110 31 171 18 37 49 85 69 108 21 22 35 41 32 41 -3 0 -23 -20
-44 -44z m-106 -398 c-3 -8 -6 -5 -6 6 -1 11 2 17 5 13 3 -3 4 -12 1 -19z"/>
<path d="M3336 898 c-33 -11 -69 -26 -80 -33 -53 -38 -108 -103 -137 -161 -63
-127 -38 -261 67 -369 24 -26 70 -58 102 -73 49 -23 70 -27 148 -27 88 0 95 2
170 41 57 29 90 54 121 92 49 60 62 99 70 199 6 76 -13 161 -43 190 -8 8 -11
19 -8 25 4 7 2 8 -4 4 -7 -4 -12 -1 -12 8 0 14 -60 58 -77 55 -19 -3 -33 2
-33 12 0 8 5 7 15 -1 13 -11 14 -10 9 3 -3 8 -12 18 -20 21 -9 3 -12 1 -9 -4
3 -6 1 -10 -4 -10 -6 0 -11 5 -11 12 0 6 -2 9 -6 6 -3 -3 -27 3 -55 13 -62 24
-128 23 -203 -3z m314 -94 l35 -38 -46 39 c-25 22 -54 46 -65 53 -10 7 -5 6
11 -2 17 -8 46 -31 65 -52z m79 -109 c0 -5 -6 1 -14 15 -8 14 -14 30 -14 35 0
6 6 -1 14 -15 8 -14 14 -29 14 -35z"/>
<path d="M5460 886 c0 -4 7 -14 15 -22 8 -9 15 -11 15 -6 0 5 -7 15 -15 22 -8
7 -15 9 -15 6z"/>
<path d="M1721 864 c0 -11 3 -14 6 -6 3 7 2 16 -1 19 -3 4 -6 -2 -5 -13z"/>
<path d="M5821 854 c0 -11 3 -14 6 -6 3 7 2 16 -1 19 -3 4 -6 -2 -5 -13z"/>
<path d="M2494 790 c-15 -16 -30 -28 -34 -25 -4 2 -17 -13 -29 -35 -43 -77
-140 -140 -253 -165 -61 -13 -62 -13 -23 -16 22 -1 54 -2 70 -1 36 3 115 32
115 42 0 4 8 10 18 13 9 4 27 14 39 23 21 15 22 15 28 -13 4 -15 11 -38 17
-50 6 -11 7 -27 3 -34 -5 -8 -4 -10 3 -5 7 4 12 1 12 -9 0 -31 79 -121 132
-150 96 -53 236 -43 313 21 27 22 23 21 -33 -8 -52 -26 -75 -32 -130 -32 -165
0 -282 119 -282 288 0 62 24 132 57 168 9 10 13 18 10 18 -4 0 -19 -13 -33
-30z"/>
<path d="M5778 813 c7 -3 16 -2 19 1 4 3 -2 6 -13 5 -11 0 -14 -3 -6 -6z"/>
<path d="M5860 805 c0 -8 2 -15 4 -15 2 0 6 7 10 15 3 8 1 15 -4 15 -6 0 -10
-7 -10 -15z"/>
<path d="M1740 804 c0 -26 86 -138 134 -173 73 -54 202 -104 181 -71 -3 6 -16
10 -28 10 -38 0 -140 56 -186 101 -24 24 -56 67 -72 94 -16 28 -29 45 -29 39z"/>
<path d="M980 668 c-13 -21 -16 -37 -10 -48 10 -18 119 -106 123 -99 2 2 17
27 34 56 l32 52 -57 36 c-71 44 -96 45 -122 3z m95 -48 c3 -5 2 -10 -4 -10 -5
0 -13 5 -16 10 -3 6 -2 10 4 10 5 0 13 -4 16 -10z m35 -15 c11 -13 10 -14 -4
-9 -9 3 -16 10 -16 15 0 13 6 11 20 -6z"/>
<path d="M2511 659 c-14 -39 -14 -57 -2 -43 10 10 25 74 18 74 -3 0 -10 -14
-16 -31z"/>
<path d="M1316 625 c-86 -30 -156 -132 -163 -234 -4 -60 -2 -70 25 -112 41
-63 112 -99 199 -99 74 0 115 15 167 60 112 99 107 281 -11 363 -33 24 -53 30
-109 33 -42 2 -84 -2 -108 -11z m172 -85 c23 -16 46 -40 53 -52 8 -16 1 -12
-26 14 -40 40 -115 65 -163 54 -20 -5 -23 -4 -12 4 8 5 36 10 61 10 35 0 56
-7 87 -30z m-218 -23 c0 -2 -10 -12 -22 -23 l-23 -19 19 23 c18 21 26 27 26
19z m133 -234 c-7 -2 -21 -2 -30 0 -10 3 -4 5 12 5 17 0 24 -2 18 -5z"/>
<path d="M3848 563 c-3 -43 -4 -78 -4 -79 5 -7 140 17 151 26 20 17 20 94 -1
114 -11 11 -35 16 -79 16 l-63 0 -4 -77z m75 7 c17 0 18 -3 9 -12 -10 -10 -17
-10 -33 0 -11 7 -25 10 -31 6 -7 -5 -8 -3 -4 5 5 7 15 10 23 7 8 -3 24 -6 36
-6z"/>
<path d="M5207 623 c-9 -14 8 -33 21 -24 10 6 10 10 -2 20 -8 7 -17 8 -19 4z"/>
<path d="M2000 496 c-55 -11 -142 -55 -156 -78 -5 -7 -3 -8 6 -3 8 5 11 4 6
-3 -4 -6 -14 -8 -23 -5 -12 5 -15 2 -10 -9 3 -10 -3 -23 -16 -35 l-22 -18 19
23 c11 12 14 22 9 22 -9 0 -25 -26 -24 -37 0 -2 -13 -31 -29 -65 -17 -35 -30
-72 -30 -83 0 -13 -3 -16 -8 -8 -4 6 -7 -21 -7 -62 0 -40 4 -71 9 -68 4 3 5
-3 2 -14 -4 -11 -4 -28 0 -37 6 -14 40 -16 350 -16 l344 0 12 27 c7 16 12 71
13 123 0 85 -3 101 -28 148 -57 109 -158 182 -278 202 -75 12 -68 12 -139 -4z
m353 -195 c35 -64 34 -77 -1 -20 -16 24 -45 58 -65 76 -19 17 -33 34 -30 37
11 11 71 -46 96 -93z"/>
<path d="M605 464 c11 -4 26 -11 33 -17 7 -5 35 -20 61 -33 119 -55 192 -165
190 -289 0 -38 -4 -79 -9 -90 -5 -12 -9 -14 -9 -6 -1 8 -3 12 -6 9 -12 -12 9
-38 30 -38 20 0 24 7 33 60 35 197 -105 391 -293 405 -27 3 -41 2 -30 -1z"/>
<path d="M444 444 c-22 -8 -56 -30 -76 -48 -19 -18 -41 -35 -48 -38 -6 -2 -18
-18 -26 -36 -12 -30 -8 -27 37 22 39 43 64 60 119 81 39 15 70 29 70 31 0 8
-35 2 -76 -12z"/>
<path d="M598 443 c7 -3 16 -2 19 1 4 3 -2 6 -13 5 -11 0 -14 -3 -6 -6z"/>
<path d="M4796 420 c7 -28 12 -35 18 -29 2 2 -2 15 -10 29 l-15 25 7 -25z"/>
<path d="M527 398 c-46 -10 -91 -32 -118 -59 l-20 -20 53 -53 c29 -28 78 -70
108 -93 30 -22 64 -49 75 -59 18 -17 59 -47 134 -96 42 -29 77 -24 90 13 6 18
11 41 12 53 1 19 2 18 9 -4 6 -19 8 -10 9 36 1 58 -18 131 -31 119 -3 -3 -8 1
-12 10 -4 11 -2 14 7 10 6 -3 2 2 -10 11 -13 9 -23 22 -23 28 0 13 -53 56 -70
56 -5 0 -10 4 -10 8 0 27 -137 54 -203 40z m343 -232 c0 -26 -6 -18 -14 19 -5
22 -4 26 4 15 5 -8 10 -24 10 -34z"/>
<path d="M1661 394 c0 -11 3 -14 6 -6 3 7 2 16 -1 19 -3 4 -6 -2 -5 -13z"/>
<path d="M4101 393 c-6 -10 -11 -14 -11 -9 0 12 -29 -25 -30 -38 0 -5 3 -7 6
-3 3 3 17 1 31 -4 20 -7 29 -6 40 8 13 16 14 17 9 1 -3 -10 -1 -20 3 -23 5 -2
11 10 14 28 8 48 -39 79 -62 40z"/>
<path d="M1082 360 c0 -14 2 -19 5 -12 2 6 2 18 0 25 -3 6 -5 1 -5 -13z"/>
<path d="M1637 315 c-36 -86 -143 -165 -224 -165 -13 0 -23 -4 -23 -10 0 -5
13 -10 29 -10 16 0 60 -16 98 -35 37 -19 59 -28 48 -20 -48 34 -60 45 -43 39
20 -7 88 61 88 88 0 10 11 46 26 79 14 34 24 65 22 70 -2 5 -11 -12 -21 -36z"/>
<path d="M948 288 c24 -56 27 -76 27 -176 0 -108 1 -112 22 -112 16 0 24 9 31
33 13 43 8 124 -10 167 -12 28 -78 133 -93 148 -2 2 9 -25 23 -60z"/>
<path d="M1677 297 c-15 -29 -27 -48 -27 -42 0 5 -7 0 -15 -12 -12 -17 -13
-31 -4 -79 6 -33 13 -70 14 -84 7 -52 19 -80 35 -80 5 0 4 15 -1 33 -17 56
-12 177 10 247 11 35 19 65 18 67 -2 1 -15 -21 -30 -50z"/>
<path d="M1117 270 c9 -19 16 -38 15 -42 -1 -5 1 -7 6 -5 4 1 7 0 7 -3 1 -13
37 -55 62 -71 20 -13 23 -19 11 -19 -9 0 -20 -5 -24 -12 -4 -7 -3 -8 5 -4 6 4
42 13 79 21 37 7 55 14 39 14 -58 2 -150 62 -200 131 -17 24 -17 24 0 -10z"/>
<path d="M2825 279 c-62 -21 -113 -54 -153 -98 -30 -33 -82 -122 -82 -140 0
-8 14 13 30 47 36 72 92 125 169 160 103 48 242 30 329 -43 17 -15 29 -32 25
-37 -3 -7 -1 -8 5 -4 11 7 78 -81 69 -91 -3 -2 -10 5 -16 16 -7 12 -17 18 -26
15 -8 -4 -15 -1 -15 5 0 6 -4 11 -8 11 -5 0 -9 -7 -9 -15 0 -8 4 -12 9 -9 4 3
8 -4 8 -15 0 -30 33 -81 53 -81 9 0 17 6 17 13 0 8 3 7 10 -3 5 -8 12 -11 16
-7 12 12 -19 89 -61 152 -33 48 -54 66 -112 97 -93 50 -170 58 -258 27z m395
-224 c15 10 12 -11 -4 -24 -17 -14 -21 -8 -30 39 l-7 35 16 -28 c9 -15 20 -25
25 -22z"/>
<path d="M3140 252 c25 -23 49 -42 53 -42 8 0 -44 46 -78 69 -11 7 0 -5 25
-27z"/>
<path d="M2690 256 c-69 -45 -159 -195 -147 -245 2 -9 9 4 16 29 21 74 62 139
120 191 61 54 63 59 11 25z"/>
<path d="M3668 209 c-61 -9 -152 -51 -140 -64 4 -5 2 -5 -4 -2 -16 9 -96 -62
-90 -80 3 -8 1 -11 -4 -8 -15 9 -23 -21 -11 -42 10 -17 10 -17 11 0 0 9 4 17
10 17 5 0 7 -7 4 -15 -4 -11 0 -15 16 -15 16 0 20 4 16 16 -3 9 -6 27 -6 41 0
20 -4 24 -17 19 -15 -6 -15 -4 2 14 22 24 29 26 21 5 -3 -8 -1 -15 5 -15 6 0
8 -7 5 -16 -3 -9 3 -27 14 -41 11 -14 20 -21 20 -16 0 5 -5 14 -12 21 -9 9 -9
18 1 39 11 23 10 29 -5 40 -10 7 -16 13 -13 14 55 8 60 7 54 -10 -7 -22 12
-68 31 -75 16 -6 20 34 5 49 -4 6 -11 22 -15 38 -5 23 -3 27 14 27 14 0 19 4
14 12 -5 8 -2 9 9 5 9 -3 19 -2 22 4 4 5 11 7 16 3 5 -3 7 -9 4 -14 -3 -5 10
-9 30 -8 30 1 36 5 32 20 -3 10 -2 18 2 18 9 0 38 -31 43 -45 2 -5 7 -9 11 -7
4 1 17 -2 28 -8 15 -9 21 -7 26 6 3 9 0 20 -7 24 -10 6 -10 9 1 15 11 8 22 -2
63 -55 6 -8 20 -23 31 -32 20 -17 20 -16 17 23 -5 50 -43 83 -112 98 -56 12
-60 12 -142 0z"/>
<path d="M3010 189 c0 -5 5 -7 10 -4 6 3 10 8 10 11 0 2 -4 4 -10 4 -5 0 -10
-5 -10 -11z"/>
<path d="M3220 170 c12 -16 24 -30 26 -30 3 0 -4 14 -16 30 -12 17 -24 30 -26
30 -3 0 4 -13 16 -30z"/>
<path d="M210 123 c0 -27 5 -65 11 -86 9 -32 14 -37 39 -37 34 0 34 -1 20 35
-6 15 -11 51 -11 82 -1 34 -5 50 -10 41 -7 -10 -12 -11 -29 0 -19 12 -20 10
-20 -35z"/>
<path d="M3004 161 c7 -11 46 -35 46 -28 0 3 -12 12 -26 22 -15 9 -23 12 -20
6z"/>
<path d="M3340 160 c-13 -8 -12 -10 3 -10 9 0 17 5 17 10 0 12 -1 12 -20 0z"/>
<path d="M3459 133 c-44 -40 -104 -121 -96 -130 3 -3 20 18 37 46 17 28 50 67
73 86 22 19 38 35 34 35 -4 0 -25 -17 -48 -37z"/>
<path d="M300 141 c-13 -25 -13 -56 1 -104 l10 -37 124 0 c69 0 125 4 125 8 0
5 -35 30 -77 57 -43 27 -80 52 -83 56 -7 9 -67 39 -79 39 -6 0 -15 -9 -21 -19z"/>
<path d="M3070 139 c0 -5 5 -7 10 -4 6 3 10 8 10 11 0 2 -4 4 -10 4 -5 0 -10
-5 -10 -11z"/>
<path d="M3110 142 c0 -5 7 -9 15 -9 8 0 12 4 9 9 -7 10 -24 10 -24 0z"/>
<path d="M3680 143 c0 -3 14 -21 30 -40 l31 -35 -7 29 c-4 15 -8 31 -10 34 -5
8 -44 19 -44 12z"/>
<path d="M3946 135 c19 -15 19 -15 -1 -9 -20 5 -20 5 -1 -10 10 -8 24 -13 30
-9 6 3 8 3 4 -1 -8 -10 23 -47 34 -40 4 3 8 -3 8 -13 0 -10 9 -26 20 -36 22
-19 40 -22 40 -8 0 14 -88 114 -113 128 -31 17 -45 16 -21 -2z"/>
<path d="M3637 99 c-4 -15 -1 -29 8 -39 9 -9 15 -10 15 -3 0 6 8 19 17 29 13
13 14 16 3 12 -8 -3 -20 2 -26 10 -9 13 -12 11 -17 -9z"/>
<path d="M1263 100 c-36 -15 -27 -18 25 -8 83 16 183 -10 258 -67 42 -32 54
-32 24 0 -42 44 -125 77 -209 81 -42 2 -86 0 -98 -6z"/>
<path d="M1080 49 c-28 -22 -49 -43 -47 -46 3 -2 14 4 24 14 10 10 34 30 53
45 19 15 32 28 28 28 -3 0 -29 -18 -58 -41z"/>
<path d="M1610 25 c13 -14 26 -25 28 -25 3 0 -5 11 -18 25 -13 14 -26 25 -28
25 -3 0 5 -11 18 -25z"/>
<path d="M2940 15 c-7 -9 -8 -15 -2 -15 5 0 12 7 16 15 7 19 2 19 -14 0z"/>
<path d="M2965 10 c-3 -5 -1 -10 4 -10 6 0 11 5 11 10 0 6 -2 10 -4 10 -3 0
-8 -4 -11 -10z"/>
</g>
</svg>
